<svg version="1.1" xmlns="http://www.w3.org/2000/svg" xmlns:xlink="http://www.w3.org/1999/xlink" x="0px" y="0px" viewBox="0 0 500 500" style="enable-background:new 0 0 500 500;">
      <style type="text/css">
    .fill{fill:#fff;}
    .stroke{fill:#000;}
    .value{
    fill:#000;
    font-family:'Ubuntu Condensed-Regular', 'Ubuntu Condensed', sans-serif;
    font-size:140px;
    letter-spacing:-10px;
  }
</style>

  <g>
    <path class="fill" d="M232.7,87.3L69.3,370.2c-7.7,13.3,1.9,30,17.3,30h326.7c15.4,0,25-16.7,17.3-30L267.3,87.3
        C259.6,73.9,240.4,73.9,232.7,87.3z" style="fill: rgb(88, 181, 243);"></path>
  </g>
  <g>
    <path class="stroke" d="M413.4,406.2H86.6c-9.4,0-17.8-4.9-22.5-13c-4.7-8.1-4.7-17.9,0-26L227.5,84.3c4.7-8.1,13.1-13,22.5-13
        c9.4,0,17.8,4.9,22.5,13l163.4,282.9c4.7,8.1,4.7,17.9,0,26C431.2,401.3,422.8,406.2,413.4,406.2z M250,83.3c-5.1,0-9.6,2.6-12.1,7
        L74.5,373.2c-2.5,4.4-2.5,9.6,0,14c2.5,4.4,7.1,7,12.1,7h326.7c5.1,0,9.6-2.6,12.1-7c2.5-4.4,2.5-9.6,0-14L262.1,90.3
        C259.6,85.9,255.1,83.3,250,83.3z" style="fill: rgb(0, 0, 0);"></path>
  </g>
  <g>
    <text x="50%" y="58%" class="value" alignment-baseline="middle" text-anchor="middle">4</text>
  </g>
</svg>
