<svg version="1.1" xmlns="http://www.w3.org/2000/svg" xmlns:xlink="http://www.w3.org/1999/xlink" x="0px" y="0px" viewBox="0 0 500 500" style="enable-background:new 0 0 500 500;">
    <style type="text/css">
    .fill{fill:#fff;}
    .stroke{fill:#000;}
    .value{
    fill:#000;
    font-family:'Ubuntu Condensed-Regular', 'Ubuntu Condensed', sans-serif;
    font-size:140px;
    letter-spacing:-10px;
  }
</style>
  <g>
    <path class="fill" d="M442.7,177.7l-64.3-88.5c-3.7-5.1-9-8.9-15-10.9L259.3,44.4c-6-2-12.5-2-18.5,0L136.7,78.2 c-6,2-11.3,5.8-15,10.9l-64.3,88.5c-3.7,5.1-5.7,11.3-5.7,17.6v109.4c0,6.3,2,12.5,5.7,17.6l64.3,88.5c3.7,5.1,9,8.9,15,10.9 l104.1,33.8c6,2,12.5,2,18.5,0l104.1-33.8c6-2,11.3-5.8,15-10.9l64.3-88.5c3.7-5.1,5.7-11.3,5.7-17.6V195.3 C448.4,188.9,446.4,182.8,442.7,177.7z" style="fill: rgb(88, 181, 243);"></path>
  </g>
  <g>
    <path class="stroke" d="M447.5,174.1C447.5,174.1,447.5,174.1,447.5,174.1l-64.3-88.5c-4.5-6.2-10.7-10.7-18-13.1L261.1,38.7 c-7.3-2.4-15-2.4-22.2,0L134.8,72.5c-7.3,2.4-13.5,6.9-18,13.1l-64.3,88.5c-4.5,6.2-6.9,13.5-6.9,21.2v109.4c0,7.7,2.4,15,6.9,21.2 l64.3,88.5c4.5,6.2,10.7,10.7,18,13.1l104.1,33.8c3.6,1.2,7.4,1.8,11.1,1.8c3.7,0,7.5-0.6,11.1-1.8l104.1-33.8 c7.3-2.4,13.5-6.9,18-13.1l64.3-88.5c4.5-6.2,6.9-13.5,6.9-21.2V195.3C454.4,187.6,452,180.3,447.5,174.1z M361.5,83.9 c4.9,1.6,9,4.6,12,8.7l64.3,88.5c0.8,1,1.4,2.1,2,3.3l-65.1,21.1L254,117.9V49.3c1.1,0.2,2.3,0.5,3.4,0.8L361.5,83.9z M323.7,351.8 H176.3l-45.6-140.3l119.2-86.6c0,0,0.1,0,0.1,0s0.1,0,0.1,0l119.2,86.6L323.7,351.8z M126.5,92.6c3-4.1,7.1-7.1,12-8.7l104.1-33.8 c1.1-0.4,2.3-0.6,3.4-0.8v68.6l-120.7,87.7l-65.1-21.1c0.6-1.1,1.2-2.2,2-3.3L126.5,92.6z M62.2,318.8c-3-4.1-4.6-9-4.6-14.1V195.3 c0-1.1,0.1-2.1,0.2-3.2l65,21.1l46.1,141.9l-40,55c-0.9-0.9-1.7-1.8-2.4-2.8L62.2,318.8z M257.4,449.9c-4.9,1.6-10,1.6-14.8,0 l-104.1-33.8c-1.1-0.3-2.1-0.8-3.1-1.2l39.9-55h149.2l39.9,55c-1,0.5-2,0.9-3.1,1.2L257.4,449.9z M442.4,304.7 c0,5.1-1.6,10-4.6,14.1l-64.3,88.5c-0.7,1-1.5,2-2.4,2.8l-40-55l46.1-141.9l65-21.1c0.1,1,0.2,2.1,0.2,3.2V304.7z" style="fill: rgb(0, 0, 0);"></path>
  </g>
  <g>
    <text x="50%" y="54%" class="value" alignment-baseline="middle" text-anchor="middle">12</text>
  </g>
</svg>
