<svg version="1.1" xmlns="http://www.w3.org/2000/svg" xmlns:xlink="http://www.w3.org/1999/xlink" x="0px" y="0px" viewBox="0 0 500 500" style="enable-background:new 0 0 500 500;">
        <style type="text/css">
    .fill{fill:#fff;}
    .stroke{fill:#000;}
    .value{
    fill:#000;
    font-family:'Ubuntu Condensed-Regular', 'Ubuntu Condensed', sans-serif;
    font-size:140px;
    letter-spacing:-10px;
  }
</style>

  <g>
    <path class="fill" d="M94.8,356.9L235,437.9c9.3,5.4,20.7,5.4,30,0l140.2-80.9c9.3-5.4,15-15.3,15-26V169.1c0-10.7-5.7-20.6-15-26 L265,62.1c-9.3-5.4-20.7-5.4-30,0L94.8,143.1c-9.3,5.4-15,15.3-15,26v161.9C79.8,341.7,85.5,351.6,94.8,356.9z" style="fill: rgb(88, 181, 243);"></path>
  </g>
  <g>
    <path class="stroke" d="M408.2,137.9L268,56.9c-11.1-6.4-24.9-6.4-36,0L91.8,137.9c-11.1,6.4-18,18.4-18,31.2v161.9c0,12.8,6.9,24.8,18,31.2h0 L232,443.1c5.6,3.2,11.8,4.8,18,4.8c6.2,0,12.4-1.6,18-4.8l140.2-80.9c11.1-6.4,18-18.4,18-31.2V169.1 C426.2,156.2,419.3,144.3,408.2,137.9z M402.2,148.3c7.4,4.3,12,12.2,12,20.8v161.9c0,1.1-0.1,2.2-0.2,3.3L259.1,65.9 c1,0.4,1.9,0.9,2.9,1.4L402.2,148.3z M90.8,341.9L250,66.1l159.1,275.8L90.8,341.9z M85.8,169.1c0-8.5,4.6-16.5,12-20.8L238,67.3 c0.9-0.5,1.9-1,2.9-1.4L86,334.2c-0.1-1.1-0.2-2.1-0.2-3.2V169.1z M262,432.7c-7.4,4.3-16.6,4.3-24,0L97.8,351.7h0 c-0.9-0.5-1.8-1.1-2.7-1.8l309.8-0.1c-0.9,0.7-1.8,1.3-2.7,1.8L262,432.7z" style="fill: rgb(0, 0, 0);"></path>
  </g>
  <g>
    <text x="50%" y="52%" class="value" alignment-baseline="middle" text-anchor="middle">8</text>
  </g>
</svg>
