<svg version="1.1" xmlns="http://www.w3.org/2000/svg" xmlns:xlink="http://www.w3.org/1999/xlink" x="0px" y="0px" viewBox="0 0 500 500" style="enable-background:new 0 0 500 500;">
    <style type="text/css">
    .fill{fill:#fff;}
    .stroke{fill:#000;}
    .value{
    fill:#000;
    font-family:'Ubuntu Condensed-Regular', 'Ubuntu Condensed', sans-serif;
    font-size:140px;
    letter-spacing:-10px;
  }
</style>
  <g>
    <path class="fill" d="M426.2,331.5v-162c0-12.8-6.8-24.7-17.9-31.1L265,55.7c-9.3-5.4-20.7-5.4-30,0L91.8,138.4 c-11.1,6.4-17.9,18.3-17.9,31.1v162c0,12.8,6.8,24.7,17.9,31.1l140.3,81c11.1,6.4,24.8,6.4,35.9,0l140.3-81 C419.3,356.1,426.2,344.3,426.2,331.5z" style="fill: rgb(88, 181, 243);"></path>
  </g>
  <g>
    <path class="stroke" d="M411.6,132.5l-140.3-81c-2.4-1.4-5-2.5-7.6-3.4c-1.8-0.6-3.6-1.1-5.5-1.4c-6.9-1.6-14.3-1.2-21,1.4 c-1.3,0.4-2.6,0.9-3.9,1.5c-1.3,0.6-2.7,1.2-3.9,2l-140.3,81c-6.6,3.8-11.9,9.3-15.5,15.7c-3.7,6.4-5.8,13.7-5.8,21.3v162 c0,2.9,0.3,5.7,0.9,8.5c1.2,7.1,4.4,13.7,9.3,18.9c3,3.5,6.6,6.5,10.7,8.9l140.3,81c6.5,3.7,13.7,5.6,20.9,5.6 c7.2,0,14.5-1.9,20.9-5.6l140.3-81c1.8-1,3.5-2.2,5-3.4c10.1-6.6,16.3-18,16.3-30.1l0-165.4C432.6,153.9,424.5,140,411.6,132.5z M242.3,59c0.6-0.2,1.2-0.3,1.8-0.5c0.1,0,0.3-0.1,0.4-0.1l1.5-0.1v38.3L93,144.7c0.6-0.4,1.2-0.8,1.8-1.1L238,60.9 c1-0.6,2.1-1.1,3.1-1.5c0.3-0.1,0.5-0.2,0.8-0.3C242,59.1,242.1,59.1,242.3,59z M262,60.9l143.2,82.7c0.6,0.4,1.2,0.7,1.8,1.1 L254,96.8V58.4l2.7,0.2C258.5,59.2,260.3,59.9,262,60.9z M405.6,356.6l-140.3,81c-0.5,0.3-1,0.5-1.5,0.8c-0.1,0.1-0.2,0.1-0.3,0.2 l118-108.5l32.6,18.8l-1.6,2.3C410.5,353.3,408.2,355.2,405.6,356.6z M236.9,438.4c-0.5-0.3-1-0.5-1.5-0.8l-140.3-81 c-2.8-1.6-5.3-3.7-7.4-6.1l-1.1-1.7l32.6-18.8l118,108.5C237.2,438.5,237.1,438.5,236.9,438.4z M80.4,167l34.9,156.2l-32.8,18.9 c-1.5-3.5-2.3-7.4-2.3-11.3C80.2,330.8,80.3,181.7,80.4,167z M416.2,155l-36.4,160.3L257.9,105.7l158.2,49L416.2,155z M373.7,321 l-246.7,0L250,108L373.7,321z M121.1,315.4L84.5,154.4l157.6-48.8L121.1,315.4z M128.9,329l243,0L250.4,441.5L128.9,329z M420.1,168.2c0,0.4,0,0.8,0,1.2v162c0,3.3-0.5,6.4-1.5,9.4l-0.5,1.1l-32.6-18.8L420.1,168.2z" style="fill: rgb(0, 0, 0);"></path>
  </g>
  <g>
    <text x="50%" y="52%" class="value" alignment-baseline="middle" text-anchor="middle">20</text>
  </g>
</svg>
