<svg version="1.1" xmlns="http://www.w3.org/2000/svg" xmlns:xlink="http://www.w3.org/1999/xlink" x="0px" y="0px" viewBox="0 0 500 500" style="enable-background:new 0 0 500 500;">
    <style type="text/css">
    .fill{fill:#fff;}
    .stroke{fill:#000;}
    .value{
    fill:#000;
    font-family:'Ubuntu Condensed-Regular', 'Ubuntu Condensed', sans-serif;
    font-size:140px;
    letter-spacing:-10px;
  }
</style>
  <g>
    <path class="fill" d="M408.4,197.7L270.3,71.3c-11.5-10.5-29-10.5-40.5,0L91.6,197.7c-6.2,5.7-9.7,13.7-9.7,22.1v60.3 c0,8.4,3.5,16.4,9.7,22.1l138.1,126.4c11.5,10.5,29,10.5,40.5,0l138.1-126.4c6.2-5.7,9.7-13.7,9.7-22.1v-60.3 C418.1,211.4,414.6,203.4,408.4,197.7z" style="fill: rgb(88, 181, 243);"></path>
  </g>
  <g>
    <path class="stroke" d="M412.4,193.3L274.3,66.9c-13.9-12.7-34.8-12.7-48.6,0L87.6,193.3c-7.4,6.8-11.7,16.5-11.7,26.6v60.3 c0,10.1,4.3,19.8,11.7,26.6l138.1,126.4c6.9,6.3,15.6,9.5,24.3,9.5c8.7,0,17.4-3.2,24.3-9.5l138.1-126.4 c7.4-6.8,11.7-16.5,11.7-26.6v-60.3C424.1,209.8,419.9,200.1,412.4,193.3z M87.9,280.2v-60.3c0-6.7,2.8-13.2,7.8-17.7L233.8,75.7 c2.6-2.4,5.7-4.1,8.8-5.1L201.9,167l0,0l-51.7,122.4H89.7C88.5,286.5,87.9,283.3,87.9,280.2z M246,430.3c-4.4-0.8-8.7-2.7-12.2-6 L95.7,297.9c-0.2-0.2-0.3-0.3-0.5-0.5h56.8l94.1,48.7V430.3z M158,291.5l92-217.8l92,217.8l-92,47.7L158,291.5z M404.3,297.9 L266.2,424.3c-3.6,3.3-7.8,5.2-12.2,6v-84.2l94.1-48.7h56.8C404.7,297.5,404.5,297.7,404.3,297.9z M412.1,280.2 c0,3.2-0.6,6.3-1.9,9.2h-60.5l-48.4-114.7l-44-104.1c3.2,1,6.2,2.7,8.8,5.1l138.1,126.4c5,4.5,7.8,11,7.8,17.7V280.2z" style="fill: rgb(0, 0, 0);"></path>
  </g>
  <g>
    <text x="50%" y="52%" class="value" alignment-baseline="middle" text-anchor="middle">10</text>
  </g>
</svg>
